<svg xmlns="http://www.w3.org/2000/svg" viewBox="0 0 24 24" fill="#1976d2">
  <path d="M12.03 0C5.386 0 0 5.373 0 12c0 6.627 5.386 12 12.03 12C18.664 24 24 18.627 24 12c0-6.627-5.336-12-11.97-12zm4.09 17.303h-1.363c-.77 0-.946-.627-2.26-1.918-1.107-1.07-1.585-.92-1.585.28v1.1c0 .377-.123.538-.464.538-1.377 0-3.116-1.837-4.463-5.037L5.99 9.9c-.123-.29-.09-.528.377-.528h1.47c.416 0 .57.188.695.528.588 1.627 1.585 3.263 1.897 3.263.147 0 .205-.15.205-.525v-2.25c0-.476-.156-.646-.553-.646h-1.1c-.39 0-.49-.188-.49-.538 0-.35.21-.49.53-.49h3.506c.375 0 .515.17.515.49v.188c0 .377-.098.538-.416.538h-.95c-.334 0-.427.17-.427.646v1.557c0 .365.06.525.188.525.164 0 .33-.08.715-.505a12.39 12.39 0 0 0 1.453-2.18.537.537 0 0 1 .507-.358h1.452c.424 0 .525.188.424.527-.295.983-1.52 2.685-1.77 2.962-.26.287-.215.434.03.683.23.246.95.802 1.115.984.16.182.305.364.213.573-.086.21-.342.2-.64.2z"></path>
</svg>
